<svg width="120" height="120" viewBox="0 0 120 120" fill="none" xmlns="http://www.w3.org/2000/svg">
<g clip-path="url(#clip0_4_1128)">
<path d="M117.627 35.996C112.387 22.6629 96.2455 14.6672 82.5744 19.9584C66.9692 25.998 72.1433 50.8193 57.969 55.8384C50.3122 58.5497 38.9933 48.4219 31.2575 46.8689C17.0026 44.0072 4.09791 54.0654 0.92025 67.9941C-2.32162 82.2042 2.87798 101.184 18.4906 105.041C37.0883 109.635 46.7757 92.9168 62.3771 88.1163C78.3873 83.19 96.1888 94.8246 109.443 80.6688C119.235 70.2108 122.815 49.1988 117.627 35.996Z" fill="url(#paint0_linear_4_1128)"/>
<path opacity="0.1" d="M111.761 41.8577C111.761 32.6004 104.257 25.0959 94.9993 25.0959C87.8275 25.0959 81.7105 29.6018 79.3173 35.9358H18.7063C16.1174 35.9358 14.0188 38.0344 14.0188 40.6233V92.5162C14.0188 95.1051 16.1174 97.2037 18.7063 97.2037H101.294C103.883 97.2037 105.982 95.1051 105.982 92.5162V54.5147C109.52 51.4413 111.761 46.9127 111.761 41.8577Z" fill="#2626BC"/>
<path d="M101.294 91.3444H18.7061C16.1171 91.3444 14.0186 89.2458 14.0186 86.6569V34.7639C14.0186 32.175 16.1171 30.0764 18.7061 30.0764H101.294C103.883 30.0764 105.981 32.175 105.981 34.7639V86.6569C105.982 89.2458 103.883 91.3444 101.294 91.3444Z" fill="#9FB0FE"/>
<path d="M105.982 34.7651V54.5698C103.041 57.1221 99.2017 58.669 94.9993 58.669C85.7415 58.669 78.2368 51.1643 78.2368 41.9088C78.2368 37.2916 80.1048 33.108 83.1259 30.0776H101.295C103.882 30.0776 105.982 32.1752 105.982 34.7651Z" fill="#8399FE"/>
<path d="M105.982 34.7651V40.6737L64.2845 72.7057C63.061 73.6455 61.5399 74.1612 60.0001 74.1612C58.4603 74.1612 56.9392 73.6455 55.7157 72.7057L14.0181 40.6737V34.7651C14.0181 32.1752 16.1181 30.0776 18.7056 30.0776H101.295C103.882 30.0776 105.982 32.1752 105.982 34.7651Z" fill="#8399FE"/>
<path d="M61.4279 52.4323L105.982 86.6569C105.982 89.2458 103.883 91.3444 101.294 91.3444H18.7061C16.1171 91.3444 14.0186 89.2458 14.0186 86.6569L58.5723 52.4323C59.4144 51.7854 60.5858 51.7854 61.4279 52.4323Z" fill="#8399FE"/>
<path d="M76.0524 63.6658L64.2845 72.7057C63.061 73.6455 61.5399 74.1612 60.0001 74.1612C58.4603 74.1612 56.9392 73.6455 55.7157 72.7057L43.9478 63.6658L58.5728 52.4323C59.4142 51.7854 60.586 51.7854 61.4274 52.4323L76.0524 63.6658Z" fill="#6583FE"/>
<path d="M58.5723 68.9887L14.0186 34.7639C14.0186 32.175 16.1171 30.0764 18.7061 30.0764H101.294C103.883 30.0764 105.981 32.175 105.981 34.7639L61.4279 68.9887C60.5858 69.6354 59.4144 69.6354 58.5723 68.9887Z" fill="#B7C5FF"/>
<path d="M86.9411 85.1074H79.4097C78.7626 85.1074 78.2378 84.5826 78.2378 83.9355V78.7432C78.2378 78.0961 78.7626 77.5713 79.4097 77.5713H86.9411C87.5882 77.5713 88.1129 78.0961 88.1129 78.7432V83.9355C88.1129 84.5829 87.5882 85.1074 86.9411 85.1074Z" fill="#02FFB3"/>
<path d="M73.0949 80.3304H66.5715C65.9242 80.3304 65.3997 79.8056 65.3997 79.1585C65.3997 78.5114 65.9242 77.9866 66.5715 77.9866H73.0949C73.7422 77.9866 74.2668 78.5114 74.2668 79.1585C74.2668 79.8056 73.7422 80.3304 73.0949 80.3304Z" fill="white"/>
<path d="M73.0949 85.1074H50.1653C49.5179 85.1074 48.9934 84.5826 48.9934 83.9355C48.9934 83.2884 49.5179 82.7637 50.1653 82.7637H73.0949C73.7422 82.7637 74.2668 83.2884 74.2668 83.9355C74.2668 84.5826 73.7422 85.1074 73.0949 85.1074Z" fill="white"/>
<path d="M94.9993 52.7602C104.257 52.7602 111.761 45.2556 111.761 35.9984C111.761 26.7411 104.257 19.2366 94.9993 19.2366C85.7421 19.2366 78.2375 26.7411 78.2375 35.9984C78.2375 45.2556 85.7421 52.7602 94.9993 52.7602Z" fill="#FF5BA8"/>
<path d="M94.9993 53.932C104.888 53.932 112.933 45.8871 112.933 35.9984C112.933 26.1096 104.888 18.0647 94.9993 18.0647C85.1106 18.0647 77.0657 26.1096 77.0657 35.9984C77.0657 41.7509 79.7912 46.8757 84.0156 50.1595L60.714 68.0592C60.2943 68.3822 59.7069 68.3824 59.2862 68.0592L15.2326 34.2187C15.4954 32.5383 16.9532 31.2483 18.7061 31.2483H72.4637C73.1111 31.2483 73.6356 30.7235 73.6356 30.0764C73.6356 29.4293 73.1111 28.9045 72.4637 28.9045H18.7063C15.4754 28.9045 12.8469 31.533 12.8469 34.7639V86.6569C12.8469 89.8877 15.4754 92.5162 18.7063 92.5162H101.294C104.525 92.5162 107.154 89.8877 107.154 86.6569V55.6866C107.154 55.0394 106.629 54.5147 105.982 54.5147C105.334 54.5147 104.81 55.0394 104.81 55.6866V84.2789L74.1283 60.7104L86.0673 51.5393C88.6993 53.058 91.7483 53.932 94.9993 53.932ZM45.872 60.7104L15.1907 84.2789V37.1419L45.872 60.7104ZM104.763 87.199C104.501 88.8804 103.048 90.1725 101.294 90.1725H18.7063C16.9525 90.1725 15.4989 88.8804 15.2368 87.199L47.796 62.1881L57.8586 69.9178C58.4891 70.402 59.2447 70.6444 60.0004 70.6444C60.756 70.6444 61.5114 70.4023 62.1421 69.9178L72.2047 62.1879L104.763 87.199ZM79.4094 35.9984C79.4094 27.4022 86.4029 20.4084 94.9993 20.4084C103.596 20.4084 110.589 27.4019 110.589 35.9984C110.589 44.5948 103.596 51.5883 94.9993 51.5883C86.4029 51.5883 79.4094 44.5945 79.4094 35.9984Z" fill="#2626BC"/>
<path d="M87.6831 30.2822L90.0751 35.9984L87.6831 41.7145C87.2769 42.6853 88.2569 43.658 89.2244 43.2445L103.666 37.076C104.615 36.6708 104.615 35.3259 103.666 34.9207L89.2244 28.7522C88.2569 28.3387 87.2769 29.3114 87.6831 30.2822Z" fill="white"/>
<path d="M95.5317 37.0924L88.3305 40.1698L90.0747 35.9979L88.3284 31.826L95.5317 34.9033C96.43 35.2877 96.43 36.7104 95.5317 37.0924Z" fill="#FFDBED"/>
<path d="M77.538 19.1416C76.6676 19.1416 75.7973 18.8105 75.135 18.1479C73.8098 16.8227 73.8098 14.6667 75.135 13.3418C76.4594 12.0171 78.6159 12.0166 79.9408 13.3418C81.266 14.6669 81.266 16.823 79.9408 18.1479C79.2785 18.8105 78.4083 19.1416 77.538 19.1416ZM77.538 14.6906C77.268 14.6906 76.9978 14.7933 76.792 14.9991C76.3809 15.4101 76.3809 16.0793 76.792 16.4906C77.2036 16.9017 77.872 16.9019 78.2836 16.4906C78.6947 16.0795 78.6947 15.4104 78.2836 14.9991C78.078 14.7935 77.8078 14.6906 77.538 14.6906Z" fill="#00ECA2"/>
<path d="M51.2199 107.652C50.3497 107.652 49.4792 107.321 48.8169 106.658C47.4917 105.333 47.4917 103.177 48.8169 101.852C50.1416 100.527 52.2983 100.527 53.623 101.852C54.9481 103.177 54.9481 105.333 53.623 106.658C52.9606 107.321 52.0901 107.652 51.2199 107.652ZM51.2199 103.201C50.9499 103.201 50.6797 103.304 50.4739 103.509C50.0628 103.92 50.0628 104.59 50.4739 105.001C50.8855 105.412 51.5541 105.412 51.9657 105.001C52.3768 104.59 52.3768 103.921 51.9657 103.509C51.7601 103.304 51.4899 103.201 51.2199 103.201Z" fill="#00ECA2"/>
<path d="M69.0893 22.1594C68.7895 22.1594 68.4893 22.0451 68.2608 21.8163L66.8627 20.4185L65.4647 21.8163C65.0074 22.2738 64.2649 22.2738 63.8077 21.8163C63.3499 21.3586 63.3499 20.6166 63.8077 20.1591L66.0342 17.9325C66.4915 17.475 67.234 17.475 67.6913 17.9325L69.9178 20.1591C70.3755 20.6168 70.3755 21.3588 69.9178 21.8163C69.6893 22.0448 69.3893 22.1594 69.0893 22.1594Z" fill="#FF7EB8"/>
<path d="M103.066 103.2C102.766 103.2 102.466 103.086 102.237 102.857L100.839 101.46L99.441 102.857C98.9837 103.315 98.2412 103.315 97.784 102.857C97.3262 102.4 97.3262 101.658 97.784 101.2L100.011 98.9735C100.468 98.516 101.21 98.516 101.668 98.9735L103.894 101.2C104.352 101.658 104.352 102.4 103.894 102.857C103.666 103.086 103.365 103.2 103.066 103.2Z" fill="#FF7EB8"/>
<path d="M41.926 104.314C41.6262 104.314 41.326 104.199 41.0975 103.971L39.6994 102.573L38.3014 103.971C37.8441 104.428 37.1016 104.428 36.6443 103.971C36.1866 103.513 36.1866 102.771 36.6443 102.313L38.8709 100.087C39.3282 99.6293 40.0707 99.6293 40.5279 100.087L42.7545 102.313C43.2122 102.771 43.2122 103.513 42.7545 103.971C42.5257 104.199 42.2257 104.314 41.926 104.314Z" fill="#6583FE"/>
</g>
<defs>
<linearGradient id="paint0_linear_4_1128" x1="101.328" y1="117.807" x2="46.4846" y2="45.1512" gradientUnits="userSpaceOnUse">
<stop stop-color="#C6D1FF"/>
<stop offset="0.5834" stop-color="#E6D5F4"/>
<stop offset="0.997" stop-color="#FFD9EC"/>
</linearGradient>
<clipPath id="clip0_4_1128">
<rect width="120" height="120" fill="white"/>
</clipPath>
</defs>
</svg>
