<svg width="120" height="120" viewBox="0 0 120 120" fill="none" xmlns="http://www.w3.org/2000/svg">
<g clip-path="url(#clip0_4_1050)">
<path d="M116.004 41.9496C127.696 13.3359 89.1096 -13.5694 64.9127 7.57031C53.9135 17.1799 6.31402 5.95453 2.20566 22.8895C-0.481914 33.9673 12.4741 41.5655 15.986 51.435C20.2146 63.318 14.2708 76.5141 16.1971 88.9793C20.49 116.757 53.9657 124.194 78.2104 117.921C103.221 111.451 91.0085 95.636 92.4175 78.2098C93.5943 63.6567 110.482 55.4653 116.004 41.9496Z" fill="url(#paint0_linear_4_1050)"/>
<path opacity="0.1" d="M79.7988 68.4324V20.8203C79.7988 19.5258 78.7495 18.4765 77.4551 18.4765H23.7949C22.5005 18.4765 21.4512 19.5258 21.4512 20.8203V95.5852C21.4512 96.8796 22.5005 97.9289 23.7949 97.9289H51.8977C50.5964 99.8883 49.8366 102.239 49.8366 104.767C49.8366 111.603 55.3781 117.145 62.2141 117.145C68.9065 117.145 74.355 111.833 74.5809 105.195C76.2373 105.675 77.9876 105.933 79.7986 105.933C90.154 105.933 98.5486 97.538 98.5486 87.1826C98.5488 76.827 90.154 68.4324 79.7988 68.4324Z" fill="#0000C9"/>
<path d="M77.4551 91.8349H23.7949C22.5005 91.8349 21.4512 90.7856 21.4512 89.4912V14.7265C21.4512 13.432 22.5005 12.3828 23.7949 12.3828H77.4548C78.7493 12.3828 79.7986 13.432 79.7986 14.7265V89.4914C79.7988 90.7856 78.7495 91.8349 77.4551 91.8349Z" fill="#FF9B33"/>
<path d="M28.4824 87.1474C27.1901 87.1474 26.1387 86.096 26.1387 84.8036V19.414C26.1387 18.1216 27.1901 17.0702 28.4824 17.0702H72.7673C74.0597 17.0702 75.1111 18.1216 75.1111 19.414V84.8036C75.1111 86.096 74.0597 87.1474 72.7673 87.1474H28.4824Z" fill="white"/>
<path d="M63.3011 24.0124H37.9511C37.2105 24.0124 36.655 23.335 36.8003 22.6108L37.9136 17.0702H63.3362L64.4495 22.6108C64.5948 23.335 64.0417 24.0124 63.3011 24.0124Z" fill="#D7D7FF"/>
<path d="M79.7989 61.8698V14.7265C79.7989 13.432 78.7496 12.3827 77.4551 12.3827H63.5925" stroke="#0000C9" stroke-width="2.59766" stroke-miterlimit="10" stroke-linecap="round" stroke-linejoin="round"/>
<path d="M32.3041 12.3828H23.7952C22.5007 12.3828 21.4514 13.4321 21.4514 14.7265V89.4914C21.4514 90.7859 22.5007 91.8352 23.7952 91.8352H51.4275" stroke="#0000C9" stroke-width="2.59766" stroke-miterlimit="10" stroke-linecap="round" stroke-linejoin="round"/>
<path d="M38.2817 10.8382L36.8007 18.207C36.6549 18.9324 37.2097 19.6097 37.9496 19.6097H63.3006C64.0405 19.6097 64.5952 18.9324 64.4495 18.207L62.9684 10.8382C62.8585 10.291 62.3778 9.89722 61.8195 9.89722H39.4304C38.8724 9.89745 38.3917 10.291 38.2817 10.8382Z" fill="#B1B1FF"/>
<path d="M38.2817 10.8382L36.8007 18.207C36.6549 18.9324 37.2097 19.6097 37.9496 19.6097H63.3006C64.0405 19.6097 64.5952 18.9324 64.4495 18.207L62.9684 10.8382C62.8585 10.291 62.3778 9.89722 61.8195 9.89722H39.4304C38.8724 9.89745 38.3917 10.291 38.2817 10.8382Z" stroke="#0000C9" stroke-width="2.59766" stroke-miterlimit="10" stroke-linecap="round" stroke-linejoin="round"/>
<path d="M43.7927 15.9256H42.3865C42.1275 15.9256 41.9177 15.7158 41.9177 15.4568V14.0506C41.9177 13.7916 42.1275 13.5818 42.3865 13.5818H43.7927C44.0517 13.5818 44.2615 13.7916 44.2615 14.0506V15.4568C44.2615 15.7156 44.0515 15.9256 43.7927 15.9256Z" fill="#8181FF"/>
<path d="M58.8635 15.9256H57.4573C57.1983 15.9256 56.9885 15.7158 56.9885 15.4569V14.0506C56.9885 13.7916 57.1983 13.5819 57.4573 13.5819H58.8635C59.1225 13.5819 59.3323 13.7916 59.3323 14.0506V15.4569C59.3323 15.7156 59.1225 15.9256 58.8635 15.9256Z" fill="#8181FF"/>
<path d="M41.9094 39.8786H33.729C33.0819 39.8786 32.5571 39.3538 32.5571 38.7067V30.5263C32.5571 29.8792 33.0819 29.3545 33.729 29.3545H41.9094C42.5565 29.3545 43.0813 29.8792 43.0813 30.5263V38.7067C43.0813 39.3538 42.5565 39.8786 41.9094 39.8786Z" stroke="#FF6C6C" stroke-width="2.59766" stroke-miterlimit="10" stroke-linecap="round" stroke-linejoin="round"/>
<path d="M55.466 29.3541H49.7109" stroke="#9292FF" stroke-width="2.59766" stroke-miterlimit="10" stroke-linecap="round" stroke-linejoin="round"/>
<path d="M68.6932 35.4962H49.7112" stroke="#9292FF" stroke-width="2.59766" stroke-miterlimit="10" stroke-linecap="round" stroke-linejoin="round"/>
<path d="M68.6932 39.8783H49.7112" stroke="#9292FF" stroke-width="2.59766" stroke-miterlimit="10" stroke-linecap="round" stroke-linejoin="round"/>
<path d="M41.9094 59.247H33.729C33.0819 59.247 32.5571 58.7222 32.5571 58.0751V49.8947C32.5571 49.2476 33.0819 48.7229 33.729 48.7229H41.9094C42.5565 48.7229 43.0813 49.2476 43.0813 49.8947V58.0751C43.0813 58.7225 42.5565 59.247 41.9094 59.247Z" stroke="#D7D7FF" stroke-width="2.59766" stroke-miterlimit="10" stroke-linecap="round" stroke-linejoin="round"/>
<path d="M55.466 48.7229H49.7109" stroke="#9292FF" stroke-width="2.59766" stroke-miterlimit="10" stroke-linecap="round" stroke-linejoin="round"/>
<path d="M68.6932 54.865H49.7112" stroke="#9292FF" stroke-width="2.59766" stroke-miterlimit="10" stroke-linecap="round" stroke-linejoin="round"/>
<path d="M68.6932 59.2471H49.7112" stroke="#9292FF" stroke-width="2.59766" stroke-miterlimit="10" stroke-linecap="round" stroke-linejoin="round"/>
<path d="M41.9094 78.6158H33.729C33.0819 78.6158 32.5571 78.091 32.5571 77.4439V69.2635C32.5571 68.6164 33.0819 68.0916 33.729 68.0916H41.9094C42.5565 68.0916 43.0813 68.6164 43.0813 69.2635V77.4439C43.0813 78.091 42.5565 78.6158 41.9094 78.6158Z" stroke="#FF6C6C" stroke-width="2.59766" stroke-miterlimit="10" stroke-linecap="round" stroke-linejoin="round"/>
<path d="M55.466 68.0916H49.7109" stroke="#9292FF" stroke-width="2.59766" stroke-miterlimit="10" stroke-linecap="round" stroke-linejoin="round"/>
<path d="M68.6932 74.2337H49.7112" stroke="#9292FF" stroke-width="2.59766" stroke-miterlimit="10" stroke-linecap="round" stroke-linejoin="round"/>
<path d="M68.6932 78.6158H49.7112" stroke="#9292FF" stroke-width="2.59766" stroke-miterlimit="10" stroke-linecap="round" stroke-linejoin="round"/>
<path d="M79.7988 99.8387C90.1542 99.8387 98.5488 91.444 98.5488 81.0887C98.5488 70.7334 90.1542 62.3387 79.7988 62.3387C69.4435 62.3387 61.0488 70.7334 61.0488 81.0887C61.0488 91.444 69.4435 99.8387 79.7988 99.8387Z" fill="#6C6CFF"/>
<path d="M79.7988 96.229C88.1606 96.229 94.9392 89.4504 94.9392 81.0886C94.9392 72.7268 88.1606 65.9482 79.7988 65.9482C71.437 65.9482 64.6584 72.7268 64.6584 81.0886C64.6584 89.4504 71.437 96.229 79.7988 96.229Z" fill="white"/>
<path d="M74.873 99.1801C76.4431 99.6066 78.0936 99.8384 79.7987 99.8384C89.3045 99.8384 97.1527 92.7629 98.3773 83.592" stroke="#0000C9" stroke-width="2.59766" stroke-miterlimit="10" stroke-linecap="round" stroke-linejoin="round"/>
<path d="M98.3358 78.2576C96.971 69.2457 89.1916 62.3384 79.7986 62.3384C69.4432 62.3384 61.0486 70.733 61.0486 81.0884C61.0486 82.79 61.2794 84.4369 61.7041 86.0042" stroke="#0000C9" stroke-width="2.59766" stroke-miterlimit="10" stroke-linecap="round" stroke-linejoin="round"/>
<path d="M88.5579 78.9783H81.9089V72.3293C81.9089 71.6822 81.3842 71.1574 80.7371 71.1574H78.8604C78.2133 71.1574 77.6885 71.6822 77.6885 72.3293V78.9783H71.0396C70.3924 78.9783 69.8677 79.5031 69.8677 80.1502V82.0268C69.8677 82.6739 70.3924 83.1987 71.0396 83.1987H77.6885V89.8477C77.6885 90.4948 78.2133 91.0195 78.8604 91.0195H80.7371C81.3842 91.0195 81.9089 90.4948 81.9089 89.8477V83.1987H88.5579C89.205 83.1987 89.7298 82.6739 89.7298 82.0268V80.1502C89.7298 79.5031 89.205 78.9783 88.5579 78.9783Z" fill="#9292FF"/>
<path d="M37.2861 53.3524L39.3629 55.4292L43.0811 51.7111" stroke="#6C6CFF" stroke-width="2.59766" stroke-miterlimit="10" stroke-linecap="round" stroke-linejoin="round"/>
<path d="M62.2142 111.051C69.0502 111.051 74.5918 105.509 74.5918 98.6731C74.5918 91.8371 69.0502 86.2955 62.2142 86.2955C55.3783 86.2955 49.8367 91.8371 49.8367 98.6731C49.8367 105.509 55.3783 111.051 62.2142 111.051Z" fill="#FFA966"/>
<path d="M62.2142 107.237C66.944 107.237 70.7783 103.403 70.7783 98.6731C70.7783 93.9433 66.944 90.109 62.2142 90.109C57.4844 90.109 53.6501 93.9433 53.6501 98.6731C53.6501 103.403 57.4844 107.237 62.2142 107.237Z" fill="white"/>
<path d="M62.2142 111.051C69.0502 111.051 74.5918 105.509 74.5918 98.6731C74.5918 91.8371 69.0502 86.2955 62.2142 86.2955C55.3783 86.2955 49.8367 91.8371 49.8367 98.6731C49.8367 105.509 55.3783 111.051 62.2142 111.051Z" stroke="#0000C9" stroke-width="2.59766" stroke-miterlimit="10" stroke-linecap="round" stroke-linejoin="round"/>
<path d="M59.3169 98.4554L61.3937 100.532L65.1118 96.814" stroke="#6C6CFF" stroke-width="2.59766" stroke-miterlimit="10" stroke-linecap="round" stroke-linejoin="round"/>
<path d="M14.8345 25.8626H12.4907C11.8436 25.8626 11.3188 25.3378 11.3188 24.6907V22.347C11.3188 21.6998 11.8436 21.1751 12.4907 21.1751H14.8345C15.4816 21.1751 16.0063 21.6998 16.0063 22.347V24.6907C16.0063 25.3378 15.4818 25.8626 14.8345 25.8626Z" stroke="#6C6CFF" stroke-width="2.59766" stroke-miterlimit="10" stroke-linecap="round" stroke-linejoin="round"/>
<path d="M95.5881 40.1398H93.2444C92.5973 40.1398 92.0725 39.615 92.0725 38.9679V36.6241C92.0725 35.977 92.5973 35.4523 93.2444 35.4523H95.5881C96.2352 35.4523 96.76 35.977 96.76 36.6241V38.9679C96.76 39.615 96.2355 40.1398 95.5881 40.1398Z" stroke="#FF6C6C" stroke-width="2.59766" stroke-miterlimit="10" stroke-linecap="round" stroke-linejoin="round"/>
<path d="M40.4092 102.876H38.0654C37.4183 102.876 36.8936 102.351 36.8936 101.704V99.3602C36.8936 98.7131 37.4183 98.1884 38.0654 98.1884H40.4092C41.0563 98.1884 41.5811 98.7131 41.5811 99.3602V101.704C41.5811 102.351 41.0565 102.876 40.4092 102.876Z" stroke="#FF9B33" stroke-width="2.59766" stroke-miterlimit="10" stroke-linecap="round" stroke-linejoin="round"/>
<path d="M101.64 71.1574H102.107M102.107 71.1574C103.143 71.1574 103.982 70.3179 103.982 69.2824M102.107 71.1574C103.143 71.1574 103.982 71.9969 103.982 73.0324M103.982 69.2824V68.8146M103.982 69.2824C103.982 70.3179 104.822 71.1574 105.857 71.1574M105.857 71.1574H106.325M105.857 71.1574C104.822 71.1574 103.982 71.9969 103.982 73.0324M103.982 73.0324V73.5002" stroke="#FF9B33" stroke-width="2.59766" stroke-miterlimit="10" stroke-linecap="round" stroke-linejoin="round"/>
<path d="M87.3867 50.2819H87.8545M87.8545 50.2819C88.89 50.2819 89.7295 49.4423 89.7295 48.4069M87.8545 50.2819C88.89 50.2819 89.7295 51.1214 89.7295 52.1569M89.7295 48.4069V47.9391M89.7295 48.4069C89.7295 49.4423 90.5691 50.2819 91.6045 50.2819M91.6045 50.2819H92.0723M91.6045 50.2819C90.5691 50.2819 89.7295 51.1214 89.7295 52.1569M89.7295 52.1569V52.6247" stroke="#6C6CFF" stroke-width="2.59766" stroke-miterlimit="10" stroke-linecap="round" stroke-linejoin="round"/>
</g>
<defs>
<linearGradient id="paint0_linear_4_1050" x1="15.4485" y1="97.3088" x2="105.722" y2="7.03546" gradientUnits="userSpaceOnUse">
<stop stop-color="white" stop-opacity="0"/>
<stop offset="0.2775" stop-color="#EBEBFF" stop-opacity="0.4412"/>
<stop offset="0.629" stop-color="#D6D6FF"/>
</linearGradient>
<clipPath id="clip0_4_1050">
<rect width="120" height="120" fill="white"/>
</clipPath>
</defs>
</svg>
