<svg width="120" height="120" viewBox="0 0 120 120" fill="none" xmlns="http://www.w3.org/2000/svg">
<g clip-path="url(#clip0_4_1162)">
<path d="M19.834 17.7959C16.553 4.24851 33.9938 -5.77078 46.8626 3.76172C56.2186 10.6922 57.9113 18.5841 66.6502 24.6961C73.9707 29.816 85.204 27.0816 91.6845 33.2302C102.391 44.145 89.5552 61.1557 94.4232 73.7234C98.6944 84.7507 113.794 90.2046 115.486 102.311C117.029 113.351 103.654 120 90.4857 120C76.8094 120 69.8803 115.185 62.7628 104.623C56.6302 96.4934 45.9633 83.2148 37.0803 90.2597C19.7944 103.969 -3.40872 99.2892 6.96612 72.5744C17.0806 46.53 24.968 38.993 19.834 17.7959Z" fill="url(#paint0_linear_4_1162)"/>
<path opacity="0.1" d="M88.0837 54.2058H79.9664V16.5234C79.9664 15.2836 78.9609 14.2805 77.7211 14.2805H42.2789C41.0391 14.2805 40.0336 15.2836 40.0336 16.5234V27.1387L34.8869 18.2243C34.5633 17.6639 33.8466 17.4717 33.2862 17.7954L18.4174 26.3798C17.857 26.7035 17.6648 27.4202 17.9885 27.9806L28.8056 46.7166C29.1293 47.2769 29.846 47.4691 30.4064 47.1455L40.0336 41.5873V54.2058H31.9162C30.6218 54.2058 29.5725 55.2551 29.5725 56.5495V112.717C29.5725 114.011 30.6218 115.061 31.9162 115.061H88.0837C89.3782 115.061 90.4275 114.011 90.4275 112.717V56.5495C90.4275 55.2551 89.3782 54.2058 88.0837 54.2058Z" fill="#0000CC"/>
<path d="M79.9663 17.9601V55.8492C79.9663 57.0891 78.9608 58.0945 77.7209 58.0945H42.2788C41.0389 58.0945 40.0334 57.0891 40.0334 55.8492V17.9601L46.6124 16.7883H73.4722L79.9663 17.9601Z" fill="white"/>
<path d="M45.2741 38.5617L40.0334 41.5875V27.1406L45.703 36.9609C46.0264 37.5211 45.8366 38.2383 45.2741 38.5617Z" fill="#D9D9FF"/>
<path d="M73.4717 58.0945H46.6123L49.3451 46.7297L54.5295 42.3773H65.5592L70.7412 46.7297L73.4717 58.0945Z" fill="#FF9D33"/>
<path d="M65.5592 42.3773L60.0444 48.9281L54.5295 42.3773L57.4288 39.9375H62.6577L65.5592 42.3773Z" fill="#FFE8DC"/>
<path d="M57.4299 36.7566V39.9384C57.4299 39.9384 58.187 41.0775 60.0423 41.0775C61.8974 41.0775 62.6579 39.9384 62.6579 39.9384V36.7566H57.4299Z" fill="#FF9494"/>
<path d="M68.1349 33.1397C69.3566 33.1397 70.3469 32.1493 70.3469 30.9277C70.3469 29.706 69.3566 28.7156 68.1349 28.7156C66.9132 28.7156 65.9229 29.706 65.9229 30.9277C65.9229 32.1493 66.9132 33.1397 68.1349 33.1397Z" fill="#FF9494"/>
<path d="M51.9496 33.1397C53.1712 33.1397 54.1616 32.1493 54.1616 30.9277C54.1616 29.706 53.1712 28.7156 51.9496 28.7156C50.7279 28.7156 49.7375 29.706 49.7375 30.9277C49.7375 32.1493 50.7279 33.1397 51.9496 33.1397Z" fill="#FF9494"/>
<path d="M53.0389 25.8844C52.7857 26.6273 52.6475 27.4265 52.6475 28.2539V31.2609C52.6475 35.3437 55.9592 38.6555 60.0443 38.6555C64.1271 38.6555 67.4389 35.3437 67.4389 31.2609V28.2515L60.0432 24.0905L53.0389 25.8844Z" fill="#FFB3B3"/>
<path d="M67.4395 28.2518C59.6721 28.2518 59.4394 25.3859 59.4394 25.3859V27.57C55.6298 28.0256 53.7656 26.6587 53.0386 25.8834C54.0241 22.9594 56.7867 20.8559 60.0436 20.8559C62.0857 20.8559 63.9337 21.683 65.2715 23.0238C66.6124 24.3616 67.4395 26.2097 67.4395 28.2518Z" fill="#FF9D33"/>
<path d="M79.9658 17.9599V10.8991C79.9658 9.65928 78.9608 8.65428 77.721 8.65428H42.2788C41.0389 8.65428 40.0339 9.65928 40.0339 10.8991V17.9599H79.9658Z" fill="#FFAB66"/>
<path d="M88.0838 109.436H31.9163C30.6218 109.436 29.5725 108.386 29.5725 107.092V50.9245C29.5725 49.6301 30.6218 48.5808 31.9163 48.5808H88.0838C89.3782 48.5808 90.4275 49.6301 90.4275 50.9245V107.092C90.4275 108.386 89.3782 109.436 88.0838 109.436Z" fill="#8383FF"/>
<path d="M29.5735 57.7031H90.4266V63.3281H29.5735V57.7031Z" fill="#6C6CFF"/>
<path d="M90.4275 57.7026V50.9245C90.4275 49.6301 89.3782 48.5808 88.0838 48.5808H31.9163C30.6218 48.5808 29.5725 49.6301 29.5725 50.9245V57.7026H90.4275Z" fill="#B3B3FF"/>
<path d="M55.7367 87.1453V101.679C55.7367 102.328 55.2117 102.851 54.5648 102.851H40.6758C40.0289 102.851 39.5039 102.328 39.5039 101.679V87.1453L43.7262 85.9734H51.5135L55.7367 87.1453Z" fill="white"/>
<path d="M55.7356 87.1458V82.3894C55.7356 81.7422 55.2108 81.2175 54.5637 81.2175H40.676C40.0289 81.2175 39.5042 81.7422 39.5042 82.3894V87.1458H55.7356Z" fill="#FF9D33"/>
<path d="M80.496 87.1453V101.679C80.496 102.328 79.971 102.851 79.3241 102.851H65.4351C64.7882 102.851 64.2632 102.328 64.2632 101.679V87.1453L68.4864 85.9734H76.2737L80.496 87.1453Z" fill="white"/>
<path d="M80.4958 87.1458V82.3894C80.4958 81.7422 79.971 81.2175 79.3239 81.2175H65.4363C64.7892 81.2175 64.2644 81.7422 64.2644 82.3894V87.1458H80.4958Z" fill="#FF6C6C"/>
<path d="M62.8583 67.5689H57.1421C56.3654 67.5689 55.7358 66.9394 55.7358 66.1626V55.0788C55.7358 54.3021 56.3654 53.6726 57.1421 53.6726H62.8583C63.635 53.6726 64.2645 54.3021 64.2645 55.0788V66.1626C64.2645 66.9394 63.6347 67.5689 62.8583 67.5689Z" fill="#4D4DFF"/>
<path d="M60.0002 64.8848C59.1871 64.8848 58.5278 64.2258 58.5278 63.4125V61.3739C58.5278 60.5608 59.1869 59.9016 60.0002 59.9016C60.8132 59.9016 61.4725 60.5606 61.4725 61.3739V63.4125C61.4725 64.2255 60.8132 64.8848 60.0002 64.8848Z" fill="#8383FF"/>
<path d="M51.5134 93.3951C51.5134 91.248 49.7666 89.5015 47.6197 89.5015C45.4729 89.5015 43.7261 91.2483 43.7261 93.3951C43.7261 94.454 44.1522 95.4143 44.8403 96.1169C44.1522 96.8196 43.7261 97.7798 43.7261 98.8387C43.7261 99.4858 44.2508 100.011 44.8979 100.011C45.5451 100.011 46.0698 99.4858 46.0698 98.8387C46.0698 97.9842 46.765 97.2888 47.6197 97.2888C48.4745 97.2888 49.1697 97.9842 49.1697 98.8387C49.1697 99.4858 49.6944 100.011 50.3415 100.011C50.9887 100.011 51.5134 99.4858 51.5134 98.8387C51.5134 97.7798 51.0873 96.8196 50.3992 96.1169C51.0873 95.4143 51.5134 94.454 51.5134 93.3951ZM47.6197 91.8452C48.4743 91.8452 49.1697 92.5406 49.1697 93.3951C49.1697 94.2497 48.4743 94.9451 47.6197 94.9451C46.7652 94.9451 46.0698 94.2499 46.0698 93.3951C46.0698 92.5404 46.7652 91.8452 47.6197 91.8452Z" fill="#6C6CFF"/>
<path d="M76.2737 93.3951C76.2737 91.248 74.5269 89.5015 72.38 89.5015C70.2331 89.5015 68.4863 91.2483 68.4863 93.3951C68.4863 94.454 68.9124 95.4143 69.6005 96.1169C68.9124 96.8196 68.4863 97.7798 68.4863 98.8387C68.4863 99.4858 69.0111 100.011 69.6582 100.011C70.3053 100.011 70.8301 99.4858 70.8301 98.8387C70.8301 97.9842 71.5252 97.2888 72.38 97.2888C73.2348 97.2888 73.9299 97.9842 73.9299 98.8387C73.9299 99.4858 74.4547 100.011 75.1018 100.011C75.7489 100.011 76.2737 99.4858 76.2737 98.8387C76.2737 97.7798 75.8476 96.8196 75.1594 96.1169C75.8476 95.4143 76.2737 94.454 76.2737 93.3951ZM72.3798 91.8452C73.2343 91.8452 73.9297 92.5406 73.9297 93.3951C73.9297 94.2497 73.2343 94.9451 72.3798 94.9451C71.5252 94.9451 70.8298 94.2499 70.8298 93.3951C70.8298 92.5404 71.5252 91.8452 72.3798 91.8452Z" fill="#6C6CFF"/>
<path d="M34.1184 61.7927C34.7656 61.7927 35.2903 61.2681 35.2903 60.6208C35.2903 59.9736 34.7656 59.449 34.1184 59.449C33.4712 59.449 32.9465 59.9736 32.9465 60.6208C32.9465 61.2681 33.4712 61.7927 34.1184 61.7927Z" fill="#4D4DFF"/>
<path d="M49.6689 61.7927C50.3162 61.7927 50.8408 61.2681 50.8408 60.6208C50.8408 59.9736 50.3162 59.449 49.6689 59.449C49.0217 59.449 48.4971 59.9736 48.4971 60.6208C48.4971 61.2681 49.0217 61.7927 49.6689 61.7927Z" fill="#4D4DFF"/>
<path d="M70.0613 61.7927C70.7085 61.7927 71.2332 61.2681 71.2332 60.6208C71.2332 59.9736 70.7085 59.449 70.0613 59.449C69.4141 59.449 68.8894 59.9736 68.8894 60.6208C68.8894 61.2681 69.4141 61.7927 70.0613 61.7927Z" fill="#4D4DFF"/>
<path d="M85.6118 61.7927C86.259 61.7927 86.7837 61.2681 86.7837 60.6208C86.7837 59.9736 86.259 59.449 85.6118 59.449C84.9646 59.449 84.4399 59.9736 84.4399 60.6208C84.4399 61.2681 84.9646 61.7927 85.6118 61.7927Z" fill="#4D4DFF"/>
<path d="M45.2742 32.9367L30.4055 41.5198C29.8448 41.8434 29.1284 41.6512 28.8047 41.0908L20.3672 26.4752L21.956 23.7094L33.6574 16.953L37.2656 16.718L45.7034 31.3359C46.0268 31.8963 45.8346 32.613 45.2742 32.9367Z" fill="white"/>
<path d="M37.2652 16.7184L34.8869 12.5993C34.5633 12.0389 33.8466 11.8467 33.2862 12.1704L18.4174 20.7548C17.857 21.0785 17.6648 21.7952 17.9885 22.3556L20.3667 26.4748L37.2652 16.7184Z" fill="#FF9D33"/>
<path d="M88.0837 47.4089H41.2054V36.6389L45.8611 33.9511C46.9802 33.3049 47.365 31.8687 46.7189 30.7495L41.2054 21.1999V10.8984C41.2054 10.3078 41.6871 9.82733 42.2789 9.82733H77.7211C78.3129 9.82733 78.7945 10.3078 78.7945 10.8984V41.6625C78.7945 42.3096 79.319 42.8344 79.9664 42.8344C80.6137 42.8344 81.1383 42.3096 81.1383 41.6625V10.8984C81.1383 9.01546 79.6052 7.48358 77.7211 7.48358H42.2789C40.3945 7.48358 38.8617 9.01546 38.8617 10.8984V17.1403L35.9018 12.0133C35.5889 11.4712 35.0833 11.0833 34.4786 10.9214C33.8735 10.7594 33.2423 10.8426 32.7002 11.1555L17.8315 19.74C17.2893 20.0529 16.9015 20.5584 16.7395 21.1631C16.5775 21.7678 16.6607 22.3994 16.9736 22.9416L27.7907 41.6775C28.1036 42.2196 28.6092 42.6075 29.2139 42.7694C29.4159 42.8236 29.6208 42.8503 29.8242 42.8503C30.2304 42.8503 30.6311 42.7437 30.9923 42.5353L38.8617 37.9919V47.4089H31.9162C29.9777 47.4089 28.4006 48.986 28.4006 50.9245V107.092C28.4006 109.031 29.9777 110.608 31.9162 110.608H57.9996C58.6467 110.608 59.1715 110.083 59.1715 109.436C59.1715 108.789 58.6467 108.264 57.9996 108.264H31.9162C31.27 108.264 30.7443 107.738 30.7443 107.092V50.9245C30.7443 50.2783 31.27 49.7526 31.9162 49.7526H88.0837C88.7299 49.7526 89.2556 50.2783 89.2556 50.9245V107.092C89.2556 107.738 88.7299 108.264 88.0837 108.264H64.7517C64.1043 108.264 63.5798 108.789 63.5798 109.436C63.5798 110.083 64.1043 110.608 64.7517 110.608H88.0837C90.0222 110.608 91.5993 109.031 91.5993 107.092V50.9245C91.5993 48.986 90.0225 47.4089 88.0837 47.4089ZM29.8204 40.5056L19.0033 21.7697L33.8721 13.1852L44.6906 31.9205L29.8204 40.5056Z" fill="#0000CC"/>
<path d="M33.3839 32.1764C33.1148 32.3318 32.7949 32.374 32.4946 32.2936L28.8503 31.3172C28.2253 31.1496 27.8543 30.5069 28.0216 29.8819C28.1892 29.2568 28.8316 28.8858 29.4569 29.0531L31.9692 29.7262L33.6187 23.5701C33.7863 22.9451 34.4287 22.574 35.054 22.7414C35.6791 22.909 36.0501 23.5516 35.8828 24.1767L33.93 31.4648C33.8493 31.7651 33.6532 32.021 33.3839 32.1764Z" fill="#4D4DFF"/>
<path d="M86.7834 34.7559C86.136 34.7559 85.6115 34.2312 85.6115 33.5841C85.6115 32.7656 84.9456 32.0998 84.1272 32.0998C83.4799 32.0998 82.9553 31.575 82.9553 30.9279C82.9553 30.2808 83.4799 29.756 84.1272 29.756C84.9456 29.756 85.6115 29.0902 85.6115 28.2717C85.6115 27.6246 86.136 27.0998 86.7834 27.0998C87.4307 27.0998 87.9552 27.6246 87.9552 28.2717C87.9552 29.0902 88.6213 29.756 89.4398 29.756C90.0871 29.756 90.6116 30.2808 90.6116 30.9279C90.6116 31.575 90.0871 32.0998 89.4398 32.0998C88.6213 32.0998 87.9552 32.7656 87.9552 33.5841C87.9552 34.2312 87.4307 34.7559 86.7834 34.7559Z" fill="#FF9D33"/>
<path d="M19.655 66.922C19.0078 66.922 18.4831 66.3973 18.4831 65.7501C18.4831 64.9317 17.8172 64.2659 16.9988 64.2659C16.3517 64.2659 15.8269 63.7411 15.8269 63.094C15.8269 62.4469 16.3517 61.9221 16.9988 61.9221C17.8172 61.9221 18.4831 61.2562 18.4831 60.4378C18.4831 59.7907 19.0078 59.2659 19.655 59.2659C20.3021 59.2659 20.8268 59.7907 20.8268 60.4378C20.8268 61.2562 21.4927 61.9221 22.3111 61.9221C22.9582 61.9221 23.483 62.4469 23.483 63.094C23.483 63.7411 22.9582 64.2659 22.3111 64.2659C21.4927 64.2659 20.8268 64.9317 20.8268 65.7501C20.8268 66.3973 20.3023 66.922 19.655 66.922Z" fill="#6C6CFF"/>
<path d="M98.7289 103.205C98.0816 103.205 97.5571 102.681 97.5571 102.034C97.5571 101.215 96.8912 100.549 96.0728 100.549C95.4254 100.549 94.9009 100.024 94.9009 99.3773C94.9009 98.7302 95.4254 98.2055 96.0728 98.2055C96.8912 98.2055 97.5571 97.5396 97.5571 96.7212C97.5571 96.0741 98.0816 95.5493 98.7289 95.5493C99.3763 95.5493 99.9008 96.0741 99.9008 96.7212C99.9008 97.5396 100.567 98.2055 101.385 98.2055C102.033 98.2055 102.557 98.7302 102.557 99.3773C102.557 100.024 102.033 100.549 101.385 100.549C100.567 100.549 99.9008 101.215 99.9008 102.034C99.9008 102.681 99.3763 103.205 98.7289 103.205Z" fill="#6C6CFF"/>
<path d="M17.8312 80.2165C17.5312 80.2165 17.2315 80.1021 17.0025 79.8733L14.5415 77.4124C14.0838 76.9547 14.0838 76.2126 14.5415 75.7551L17.0025 73.2942C17.4602 72.8367 18.202 72.8367 18.6597 73.2942L21.1207 75.7551C21.5784 76.2129 21.5784 76.9549 21.1207 77.4124L18.6597 79.8733C18.431 80.1021 18.131 80.2165 17.8312 80.2165ZM17.0276 76.5837L17.8312 77.3873L18.6349 76.5837L17.8312 75.78L17.0276 76.5837Z" fill="#FF6C6C"/>
<path d="M19.655 12.2871C19.355 12.2871 19.0552 12.1727 18.8262 11.944L16.3653 9.48304C15.9075 9.02531 15.9075 8.28328 16.3653 7.82578L18.8262 5.36484C19.2839 4.90734 20.0257 4.90734 20.4835 5.36484L22.9444 7.82578C23.4022 8.28351 23.4022 9.02554 22.9444 9.48304L20.4835 11.944C20.2547 12.1727 19.955 12.2871 19.655 12.2871ZM18.8515 8.65429L19.6552 9.45796L20.4589 8.65429L19.6552 7.85062L18.8515 8.65429Z" fill="#FF9D33"/>
</g>
<defs>
<linearGradient id="paint0_linear_4_1162" x1="20.1375" y1="106.325" x2="92.4584" y2="34.0043" gradientUnits="userSpaceOnUse">
<stop stop-color="white" stop-opacity="0"/>
<stop offset="0.2532" stop-color="#EEEEFF" stop-opacity="0.403"/>
<stop offset="0.629" stop-color="#D9D9FF"/>
</linearGradient>
<clipPath id="clip0_4_1162">
<rect width="120" height="120" fill="white"/>
</clipPath>
</defs>
</svg>
