<svg width="120" height="120" viewBox="0 0 120 120" fill="none" xmlns="http://www.w3.org/2000/svg">
<g clip-path="url(#clip0_4_1231)">
<path d="M114.281 29.9672C113.302 13.3416 98.1577 3.91547 82.5589 0.953436C23.1917 -10.3202 -26.7138 81.8522 31.726 95.0836C54.4486 100.228 62.7108 107.513 73.6807 117.682C78.18 121.852 85.122 120.102 88.0486 114.783C92.1331 107.359 88.6046 98.5667 89.5475 90.6298C92.1608 68.6323 115.65 53.2102 114.281 29.9672Z" fill="url(#paint0_linear_4_1231)"/>
<path opacity="0.1" d="M90.5283 41.1251C89.194 41.1251 87.8984 41.2882 86.6566 41.5889C81.2255 32.5101 71.298 26.4305 59.9494 26.4305C54.7868 26.4305 49.9188 27.6898 45.6335 29.9158C45.7915 29.0016 45.8787 28.0629 45.8787 27.1033C45.8787 18.0424 38.5333 10.6971 29.4724 10.6971C20.4115 10.6971 13.0662 18.0424 13.0662 27.1033C13.0662 36.1643 20.4115 43.5096 29.4724 43.5096C30.4408 43.5096 31.388 43.4208 32.3105 43.26C30.8913 46.0029 29.8683 48.9839 29.3175 52.1276H15.3237C14.6766 52.1276 14.1518 52.6523 14.1518 53.2994V61.7634C14.1518 62.4105 14.6766 62.9353 15.3237 62.9353H29.3198C30.8782 71.8263 36.2107 79.418 43.6073 83.9955L39.7333 116.988C39.6516 117.685 40.1958 118.297 40.8973 118.297H45.7631C46.3575 118.297 46.8576 117.852 46.927 117.261L47.4237 113.032H72.4753L72.9719 117.261C73.0413 117.852 73.5415 118.297 74.1359 118.297H79.0017C79.7032 118.297 80.2474 117.685 80.1656 116.988L76.2912 83.9953C80.5315 81.3712 84.0916 77.7551 86.6538 73.4733C87.8965 73.7742 89.1928 73.9376 90.528 73.9376C99.589 73.9376 106.934 66.5923 106.934 57.5313C106.935 48.4706 99.5892 41.1251 90.5283 41.1251ZM69.4366 87.1563L70.9718 100.231H48.9265L50.4616 87.1566C53.4527 88.1137 56.6402 88.6324 59.9491 88.6324C63.258 88.6324 66.4453 88.1135 69.4366 87.1563ZM47.6986 110.689L48.2505 105.989H71.648L72.1999 110.689H47.6986Z" fill="#0000CA"/>
<path d="M29.4722 37.8846C38.5331 37.8846 45.8784 30.5393 45.8784 21.4783C45.8784 12.4174 38.5331 5.0721 29.4722 5.0721C20.4112 5.0721 13.0659 12.4174 13.0659 21.4783C13.0659 30.5393 20.4112 37.8846 29.4722 37.8846Z" fill="#FF4D4D"/>
<path d="M29.4723 37.8846C32.4121 37.8846 35.1688 37.1077 37.555 35.7534L34.3353 34.3102C33.1098 33.7608 32.3211 32.5427 32.3211 31.1998V26.1642H26.6232V31.1998C26.6232 32.5427 25.8346 33.7608 24.609 34.3102L21.3894 35.7534C23.776 37.1077 26.5325 37.8846 29.4723 37.8846Z" fill="#FFD8D8"/>
<path d="M29.4722 37.8846C38.5331 37.8846 45.8784 30.5393 45.8784 21.4783C45.8784 12.4174 38.5331 5.0721 29.4722 5.0721C20.4112 5.0721 13.0659 12.4174 13.0659 21.4783C13.0659 30.5393 20.4112 37.8846 29.4722 37.8846Z" stroke="#0000CA" stroke-width="2.40234" stroke-miterlimit="10" stroke-linecap="round" stroke-linejoin="round"/>
<path d="M24.6969 21.7605C24.6969 23.347 23.4106 24.6333 21.8241 24.6333C20.2377 24.6333 18.9514 23.347 18.9514 21.7605C18.9514 20.1741 20.2377 18.8878 21.8241 18.8878C23.4109 18.8878 24.6969 20.1741 24.6969 21.7605Z" fill="#FFD8D8"/>
<path d="M37.1208 24.6333C38.7073 24.6333 39.9935 23.3471 39.9935 21.7605C39.9935 20.174 38.7073 18.8878 37.1208 18.8878C35.5342 18.8878 34.248 20.174 34.248 21.7605C34.248 23.3471 35.5342 24.6333 37.1208 24.6333Z" fill="#FFD8D8"/>
<path d="M32.3213 26.1644V31.2C32.3213 31.9045 32.5399 32.5734 32.9231 33.1305C31.9027 33.7205 30.7221 34.0558 29.4724 34.0558C28.2225 34.0558 27.042 33.7202 26.0217 33.1305C26.4049 32.5734 26.6236 31.9045 26.6236 31.2V26.1644H32.3213Z" fill="#FFB2B2"/>
<path d="M21.885 19.388L22.65 24.3569C23.1684 27.7242 26.0658 30.2098 29.4727 30.2098C32.8795 30.2098 35.7771 27.7242 36.2953 24.3569L37.0603 19.388C37.7763 14.7373 34.178 10.5429 29.4727 10.5429C24.7671 10.5431 21.169 14.7375 21.885 19.388Z" fill="#FFEDED"/>
<path d="M32.7619 21.9176C32.2859 21.9176 31.8999 21.5318 31.8999 21.0555V20.685C31.8999 20.209 32.2859 19.823 32.7619 19.823C33.238 19.823 33.624 20.2087 33.624 20.685V21.0555C33.624 21.5318 33.238 21.9176 32.7619 21.9176Z" fill="#8282FF"/>
<path d="M26.1828 21.9176C25.7068 21.9176 25.3208 21.5318 25.3208 21.0555V20.685C25.3208 20.209 25.7068 19.823 26.1828 19.823C26.6588 19.823 27.0449 20.2087 27.0449 20.685V21.0555C27.0446 21.5318 26.6588 21.9176 26.1828 21.9176Z" fill="#8282FF"/>
<path d="M73.5878 94.6057H46.311V100.364H73.5878V94.6057Z" fill="#FF8A00"/>
<path d="M64.8002 94.6057H46.311V100.364H74.876" stroke="#0000CA" stroke-width="2.40234" stroke-miterlimit="10" stroke-linecap="round" stroke-linejoin="round"/>
<path d="M46.9269 111.636L51.4928 72.7514H44.267L39.7332 111.363C39.6515 112.059 40.1957 112.671 40.8972 112.671H45.763C46.3574 112.671 46.8575 112.226 46.9269 111.636Z" fill="#FFAA66"/>
<path d="M51.4937 72.7521L49.8273 86.9459C47.3992 86.1115 45.107 84.9841 42.9929 83.6037L44.2679 72.7521H51.4937Z" fill="#FF9C33"/>
<path d="M46.9269 111.636L51.4928 72.7514H44.267L39.7332 111.363C39.6515 112.059 40.1957 112.671 40.8972 112.671H45.763C46.3574 112.671 46.8575 112.226 46.9269 111.636Z" stroke="#0000CA" stroke-width="2.40234" stroke-miterlimit="10" stroke-linecap="round" stroke-linejoin="round"/>
<path d="M80.1655 111.363L75.6318 72.7516H68.406L72.9719 111.636C73.0412 112.227 73.5414 112.672 74.1358 112.672H79.0016C79.7029 112.671 80.2473 112.059 80.1655 111.363Z" fill="#FFAA66"/>
<path d="M76.9072 83.6038C74.7931 84.9819 72.5009 86.1116 70.0728 86.946L68.4064 72.7522H75.6322L76.9072 83.6038Z" fill="#FF9C33"/>
<path d="M80.1655 111.363L75.6318 72.7516H68.406L72.9719 111.636C73.0412 112.227 73.5414 112.672 74.1358 112.672H79.0016C79.7029 112.671 80.2473 112.059 80.1655 111.363Z" stroke="#0000CA" stroke-width="2.40234" stroke-miterlimit="10" stroke-linecap="round" stroke-linejoin="round"/>
<path d="M59.9492 83.0072C77.1258 83.0072 91.0501 69.0828 91.0501 51.9063C91.0501 34.7298 77.1258 20.8055 59.9492 20.8055C42.7727 20.8055 28.8484 34.7298 28.8484 51.9063C28.8484 69.0828 42.7727 83.0072 59.9492 83.0072Z" fill="#FF6C6C"/>
<path d="M91.0504 51.907C91.0504 59.7187 88.1699 66.8578 83.4144 72.3211H83.4121C77.916 69.6703 74.1215 64.0429 74.1215 57.532C74.1215 48.9351 80.7355 41.8804 89.1519 41.182C90.3801 44.5242 91.0504 48.1383 91.0504 51.907Z" fill="#FF4D4D"/>
<path d="M56.7802 59.2758L46.1513 68.8078C44.6419 70.1601 42.2419 69.089 42.2419 67.0617V62.9343H30.863C29.5856 59.5734 28.8778 55.9312 28.8521 52.1273H42.2419V48C42.2419 45.9726 44.6419 44.9015 46.1513 46.2539L56.7802 55.7859C57.8208 56.7187 57.8208 58.3453 56.7802 59.2758Z" fill="#FF4D4D"/>
<path d="M76.968 68.9261C86.3677 59.5264 86.3677 44.2865 76.968 34.8868C67.5684 25.4872 52.3285 25.4872 42.9288 34.8868C33.5291 44.2865 33.5291 59.5264 42.9288 68.9261C52.3285 78.3258 67.5684 78.3258 76.968 68.9261Z" fill="white"/>
<path d="M84.0191 51.907C84.0191 58.0711 81.6894 63.6984 77.8668 67.9617C75.5254 65.1258 74.1215 61.493 74.1215 57.532C74.1215 51.4242 77.4613 46.0945 82.4136 43.2703C83.4519 45.9515 84.0191 48.8648 84.0191 51.907Z" fill="#D8D8FF"/>
<path d="M56.7802 59.2758L46.1513 68.8078C44.6419 70.1601 42.2419 69.089 42.2419 67.0617V62.9343H38.5599C36.8794 59.6906 35.9161 56.0179 35.8833 52.1273H42.2419V48C42.2419 45.9726 44.6419 44.9015 46.1513 46.2539L56.7802 55.7859C57.8208 56.7187 57.8208 58.3453 56.7802 59.2758Z" fill="#D8D8FF"/>
<path d="M66.4719 67.6482C75.1658 64.047 79.2942 54.0798 75.693 45.3859C72.0918 36.6919 62.1246 32.5635 53.4307 36.1647C44.7368 39.7659 40.6083 49.7331 44.2095 58.427C47.8108 67.1209 57.7779 71.2494 66.4719 67.6482Z" fill="#FF6C6C"/>
<path d="M56.7801 59.2758L49.7699 65.5617C45.6098 62.4515 42.9121 57.4898 42.9121 51.907C42.9121 49.7226 43.3246 47.632 44.0793 45.7125C44.7684 45.5531 45.5348 45.7008 46.1512 46.2539L56.7801 55.7859C57.8207 56.7187 57.8207 58.3453 56.7801 59.2758Z" fill="#FF4D4D"/>
<path d="M76.9879 51.907C76.9879 55.1789 76.0621 58.2375 74.4543 60.8344C74.2363 59.768 74.1215 58.664 74.1215 57.532C74.1215 54.2883 75.0637 51.2648 76.6879 48.7195C76.8847 49.7531 76.9879 50.8172 76.9879 51.907Z" fill="#FF4D4D"/>
<path d="M63.781 61.152C68.8872 59.037 71.3119 53.1829 69.1968 48.0768C67.0817 42.9706 61.2277 40.5458 56.1215 42.6609C51.0154 44.776 48.5906 50.63 50.7057 55.7362C52.8208 60.8424 58.6748 63.2671 63.781 61.152Z" fill="white"/>
<path d="M59.9492 54.8822C58.3084 54.8822 56.9734 53.5472 56.9734 51.9063C56.9734 50.2654 58.3084 48.9305 59.9492 48.9305C61.5901 48.9305 62.9251 50.2654 62.9251 51.9063C62.9251 53.5472 61.5901 54.8822 59.9492 54.8822Z" fill="#FF6C6C"/>
<path d="M56.78 55.7859L50.1566 49.8459C50.0169 50.5111 49.9421 51.2001 49.9421 51.9063C49.9421 55.7008 52.0651 59.0088 55.1858 60.7052L56.78 59.2758C57.8207 58.3453 57.8207 56.7187 56.78 55.7859Z" fill="#D8D8FF"/>
<path d="M31.1722 63.7179C35.8229 75.0363 46.9543 83.0072 59.9492 83.0072C77.1257 83.0072 91.0501 69.0829 91.0501 51.9063C91.0501 34.7297 77.1259 20.8057 59.9492 20.8057C42.7726 20.8057 28.8484 34.7299 28.8484 51.9065" stroke="#0000CA" stroke-width="2.40234" stroke-miterlimit="10" stroke-linecap="round" stroke-linejoin="round"/>
<path d="M47.6924 106.236H72.2064" stroke="#0000CA" stroke-width="2.40234" stroke-miterlimit="10" stroke-linecap="round" stroke-linejoin="round"/>
<path d="M74.8764 97.4848H74.8488" stroke="#FF8A00" stroke-width="2.40234" stroke-miterlimit="10" stroke-linecap="round" stroke-linejoin="round"/>
<path d="M45.0503 97.4848H45.0225" stroke="#FF8A00" stroke-width="2.40234" stroke-miterlimit="10" stroke-linecap="round" stroke-linejoin="round"/>
<path d="M46.1511 63.1828L56.7809 53.6515C57.8197 52.7201 57.8197 51.093 56.7809 50.1616L46.1511 40.6303C44.6419 39.277 42.2426 40.3481 42.2426 42.3752V46.5028H15.3235C14.6764 46.5028 14.1516 47.0276 14.1516 47.6747V56.1387C14.1516 56.7858 14.6764 57.3105 15.3235 57.3105H42.2426V61.4381C42.2426 63.465 44.6419 64.5361 46.1511 63.1828Z" fill="#FFAA66"/>
<path d="M38.3592 51.9352H21.011" stroke="#FFD5BA" stroke-width="2.40234" stroke-miterlimit="10" stroke-linecap="round" stroke-linejoin="round"/>
<path d="M46.1511 63.1828L56.7809 53.6515C57.8197 52.7201 57.8197 51.093 56.7809 50.1616L46.1511 40.6303C44.6419 39.277 42.2426 40.3481 42.2426 42.3752V46.5028H15.3235C14.6764 46.5028 14.1516 47.0276 14.1516 47.6747V56.1387C14.1516 56.7858 14.6764 57.3105 15.3235 57.3105H42.2426V61.4381C42.2426 63.465 44.6419 64.5361 46.1511 63.1828Z" stroke="#0000CA" stroke-width="2.40234" stroke-miterlimit="10" stroke-linecap="round" stroke-linejoin="round"/>
<path d="M90.5282 68.3126C99.5891 68.3126 106.934 60.9672 106.934 51.9063C106.934 42.8454 99.5891 35.5001 90.5282 35.5001C81.4673 35.5001 74.1219 42.8454 74.1219 51.9063C74.1219 60.9672 81.4673 68.3126 90.5282 68.3126Z" fill="#B2B2FF"/>
<path d="M90.5282 68.3126C93.186 68.3126 95.694 67.6765 97.9145 66.5545L94.9049 65.2055C93.8019 64.7109 93.092 63.615 93.092 62.4061V57.8742H87.9641V62.4061C87.9641 63.6148 87.2542 64.7109 86.1512 65.2055L83.1416 66.5545C85.3623 67.6767 87.8701 68.3126 90.5282 68.3126Z" fill="#FFB2B2"/>
<path d="M90.5282 68.3126C99.5891 68.3126 106.934 60.9672 106.934 51.9063C106.934 42.8454 99.5891 35.5001 90.5282 35.5001C81.4673 35.5001 74.1219 42.8454 74.1219 51.9063C74.1219 60.9672 81.4673 68.3126 90.5282 68.3126Z" stroke="#0000CA" stroke-width="2.40234" stroke-miterlimit="10" stroke-linecap="round" stroke-linejoin="round"/>
<path d="M93.2879 39.7781C87.8499 38.8582 86.2161 41.4668 86.2161 41.4668C81.6739 41.4668 81.0685 46.3263 81.0685 48.5252C81.0685 52.4236 83.3731 55.5837 86.2161 55.5837C87.2168 55.5837 88.1501 55.1909 88.9404 54.5133C90.1292 55.6615 91.6409 56.3501 93.2879 56.3501C97.1136 56.3501 100.215 52.6402 100.215 48.064C100.215 43.4878 99.3146 40.7977 93.2879 39.7781Z" fill="#8282FF"/>
<path d="M97.4116 56.4963C98.8394 56.4963 99.997 55.3388 99.997 53.9109C99.997 52.4831 98.8394 51.3255 97.4116 51.3255C95.9837 51.3255 94.8262 52.4831 94.8262 53.9109C94.8262 55.3388 95.9837 56.4963 97.4116 56.4963Z" fill="#FFB2B2"/>
<path d="M83.6448 56.4963C85.0727 56.4963 86.2302 55.3388 86.2302 53.911C86.2302 52.4831 85.0727 51.3256 83.6448 51.3256C82.217 51.3256 81.0594 52.4831 81.0594 53.911C81.0594 55.3388 82.217 56.4963 83.6448 56.4963Z" fill="#FFB2B2"/>
<path d="M87.9641 57.8742V62.4061C87.9641 63.0401 87.7673 63.6422 87.4225 64.1435C88.3408 64.6744 89.4034 64.9762 90.5282 64.9762C91.6529 64.9762 92.7156 64.6741 93.6339 64.1435C93.2889 63.6419 93.0922 63.0401 93.0922 62.4061V57.8742H87.9641Z" fill="#FF9393"/>
<path d="M86.0516 45.4606C84.3022 46.9521 83.3169 49.2914 83.6992 51.7756L84.3875 56.2474C84.8539 59.2779 87.4618 61.515 90.5279 61.515C93.5943 61.515 96.2019 59.2781 96.6683 56.2474L97.3567 51.7756C97.483 50.9545 97.4582 50.1499 97.3075 49.3859C93.5633 48.056 89.8112 46.747 86.0516 45.4606Z" fill="#FFD8D8"/>
<path d="M87.5673 54.0523C87.1388 54.0523 86.7915 53.7049 86.7915 53.2765V52.943C86.7915 52.5145 87.1388 52.1672 87.5673 52.1672C87.9957 52.1672 88.3431 52.5145 88.3431 52.943V53.2765C88.3431 53.7052 87.9957 54.0523 87.5673 54.0523Z" fill="#6C6CFF"/>
<path d="M93.4888 54.0523C93.0604 54.0523 92.713 53.7049 92.713 53.2765V52.943C92.713 52.5145 93.0604 52.1672 93.4888 52.1672C93.9172 52.1672 94.2646 52.5145 94.2646 52.943V53.2765C94.2643 53.7052 93.917 54.0523 93.4888 54.0523Z" fill="#6C6CFF"/>
<path d="M84.4766 45.8519C84.4766 45.8519 86.2409 48.7242 90.5595 48.0652C90.5595 48.0652 92.8904 51.2923 97.883 49.2035C97.883 49.2035 97.9292 42.8887 89.7005 42.8887C85.2162 42.889 84.4766 45.8519 84.4766 45.8519Z" fill="#8282FF"/>
<path d="M100.215 86.1923L100.823 88.0655H102.793L101.199 89.223L101.808 91.0962L100.215 89.9386L98.6213 91.0962L99.2298 89.223L97.6365 88.0655H99.6059L100.215 86.1923Z" stroke="#FF6C6C" stroke-width="2.40234" stroke-miterlimit="10" stroke-linecap="round" stroke-linejoin="round"/>
<path d="M12.9353 64.259L13.544 66.1322H15.5134L13.9201 67.2898L14.5288 69.1629L12.9353 68.0053L11.342 69.1629L11.9507 67.2898L10.3572 66.1322H12.3266L12.9353 64.259Z" stroke="#FF6C6C" stroke-width="2.40234" stroke-miterlimit="10" stroke-linecap="round" stroke-linejoin="round"/>
<path d="M88.851 16.4358L89.4596 18.3089H91.4291L89.8358 19.4667L90.4445 21.3398L88.851 20.182L87.2577 21.3398L87.8663 19.4667L86.2728 18.3089H88.2425L88.851 16.4358Z" stroke="#FF9C33" stroke-width="2.40234" stroke-miterlimit="10" stroke-linecap="round" stroke-linejoin="round"/>
<path d="M28.4521 92.2036C29.7466 92.2036 30.7959 91.1543 30.7959 89.8598C30.7959 88.5654 29.7466 87.5161 28.4521 87.5161C27.1577 87.5161 26.1084 88.5654 26.1084 89.8598C26.1084 91.1543 27.1577 92.2036 28.4521 92.2036Z" stroke="#8282FF" stroke-width="2.40234" stroke-miterlimit="10" stroke-linecap="round" stroke-linejoin="round"/>
<path d="M107.599 78.1263C108.894 78.1263 109.943 77.077 109.943 75.7826C109.943 74.4881 108.894 73.4388 107.599 73.4388C106.305 73.4388 105.255 74.4881 105.255 75.7826C105.255 77.077 106.305 78.1263 107.599 78.1263Z" stroke="#FF9C33" stroke-width="2.40234" stroke-miterlimit="10" stroke-linecap="round" stroke-linejoin="round"/>
</g>
<defs>
<linearGradient id="paint0_linear_4_1231" x1="26.5996" y1="98.7188" x2="109.557" y2="15.7613" gradientUnits="userSpaceOnUse">
<stop stop-color="white" stop-opacity="0"/>
<stop offset="0.2698" stop-color="#ECECFF" stop-opacity="0.429"/>
<stop offset="0.629" stop-color="#D7D7FF"/>
</linearGradient>
<clipPath id="clip0_4_1231">
<rect width="120" height="120" fill="white"/>
</clipPath>
</defs>
</svg>
